<svg width="182" height="43" viewBox="0 0 182 43" fill="none" xmlns="http://www.w3.org/2000/svg">
<g opacity="0.5">
<path d="M3.9 4.92329C3.9 6.00329 3.03 6.87331 1.95 6.87331C0.869999 6.87331 0 6.00329 0 4.92329C0 3.84329 0.869999 2.9733 1.95 2.9733C3.03 2.9733 3.9 3.84329 3.9 4.92329Z" fill="#FFFFFA"/>
<path d="M17.57 4.92329C17.57 6.00329 16.7 6.87331 15.62 6.87331C14.54 6.87331 13.67 6.00329 13.67 4.92329C13.67 3.84329 14.54 2.9733 15.62 2.9733C16.7 2.9733 17.57 3.84329 17.57 4.92329Z" fill="#FFFFFA"/>
<path d="M31.24 4.92329C31.24 6.00329 30.37 6.87331 29.29 6.87331C28.21 6.87331 27.34 6.00329 27.34 4.92329C27.34 3.84329 28.21 2.9733 29.29 2.9733C30.37 2.9733 31.24 3.84329 31.24 4.92329Z" fill="#FFFFFA"/>
<path d="M44.91 4.92329C44.91 6.00329 44.04 6.87331 42.96 6.87331C41.88 6.87331 41.01 6.00329 41.01 4.92329C41.01 3.84329 41.88 2.9733 42.96 2.9733C44.04 2.9733 44.91 3.84329 44.91 4.92329Z" fill="#FFFFFA"/>
<path d="M58.59 4.92329C58.59 6.00329 57.72 6.87331 56.64 6.87331C55.56 6.87331 54.69 6.00329 54.69 4.92329C54.69 3.84329 55.56 2.9733 56.64 2.9733C57.72 2.9733 58.59 3.84329 58.59 4.92329Z" fill="#FFFFFA"/>
<path d="M72.26 4.92329C72.26 6.00329 71.39 6.87331 70.31 6.87331C69.23 6.87331 68.36 6.00329 68.36 4.92329C68.36 3.84329 69.23 2.9733 70.31 2.9733C71.39 2.9733 72.26 3.84329 72.26 4.92329Z" fill="#FFFFFA"/>
<path d="M85.93 4.92329C85.93 6.00329 85.06 6.87331 83.98 6.87331C82.9 6.87331 82.03 6.00329 82.03 4.92329C82.03 3.84329 82.9 2.9733 83.98 2.9733C85.06 2.9733 85.93 3.84329 85.93 4.92329Z" fill="#FFFFFA"/>
<path d="M99.6 4.92329C99.6 6.00329 98.73 6.87331 97.65 6.87331C96.57 6.87331 95.7 6.00329 95.7 4.92329C95.7 3.84329 96.57 2.9733 97.65 2.9733C98.73 2.9733 99.6 3.84329 99.6 4.92329Z" fill="#FFFFFA"/>
<path d="M113.27 4.92329C113.27 6.00329 112.4 6.87331 111.32 6.87331C110.24 6.87331 109.37 6.00329 109.37 4.92329C109.37 3.84329 110.24 2.9733 111.32 2.9733C112.4 2.9733 113.27 3.84329 113.27 4.92329Z" fill="#FFFFFA"/>
<path d="M126.94 4.92329C126.94 6.00329 126.07 6.87331 124.99 6.87331C123.91 6.87331 123.04 6.00329 123.04 4.92329C123.04 3.84329 123.91 2.9733 124.99 2.9733C126.07 2.9733 126.94 3.84329 126.94 4.92329Z" fill="#FFFFFA"/>
<path d="M140.61 4.92329C140.61 6.00329 139.74 6.87331 138.66 6.87331C137.58 6.87331 136.71 6.00329 136.71 4.92329C136.71 3.84329 137.58 2.9733 138.66 2.9733C139.74 2.9733 140.61 3.84329 140.61 4.92329Z" fill="#FFFFFA"/>
<path d="M154.28 4.92329C154.28 6.00329 153.41 6.87331 152.33 6.87331C151.25 6.87331 150.38 6.00329 150.38 4.92329C150.38 3.84329 151.25 2.9733 152.33 2.9733C153.41 2.9733 154.28 3.84329 154.28 4.92329Z" fill="#FFFFFA"/>
<path d="M167.95 4.92329C167.95 6.00329 167.08 6.87331 166 6.87331C164.92 6.87331 164.05 6.00329 164.05 4.92329C164.05 3.84329 164.92 2.9733 166 2.9733C167.08 2.9733 167.95 3.84329 167.95 4.92329Z" fill="#FFFFFA"/>
<path d="M181.62 4.92329C181.62 6.00329 180.75 6.87331 179.67 6.87331C178.59 6.87331 177.72 6.00329 177.72 4.92329C177.72 3.84329 178.59 2.9733 179.67 2.9733C180.75 2.9733 181.62 3.84329 181.62 4.92329Z" fill="#FFFFFA"/>
<path d="M3.9 16.7533C3.9 17.8333 3.03 18.7033 1.95 18.7033C0.869999 18.7033 0 17.8333 0 16.7533C0 15.6733 0.869999 14.8033 1.95 14.8033C3.03 14.8033 3.9 15.6733 3.9 16.7533Z" fill="#FFFFFA"/>
<path d="M17.57 16.7533C17.57 17.8333 16.7 18.7033 15.62 18.7033C14.54 18.7033 13.67 17.8333 13.67 16.7533C13.67 15.6733 14.54 14.8033 15.62 14.8033C16.7 14.8033 17.57 15.6733 17.57 16.7533Z" fill="#FFFFFA"/>
<path d="M31.24 16.7533C31.24 17.8333 30.37 18.7033 29.29 18.7033C28.21 18.7033 27.34 17.8333 27.34 16.7533C27.34 15.6733 28.21 14.8033 29.29 14.8033C30.37 14.8033 31.24 15.6733 31.24 16.7533Z" fill="#FFFFFA"/>
<path d="M44.91 16.7533C44.91 17.8333 44.04 18.7033 42.96 18.7033C41.88 18.7033 41.01 17.8333 41.01 16.7533C41.01 15.6733 41.88 14.8033 42.96 14.8033C44.04 14.8033 44.91 15.6733 44.91 16.7533Z" fill="#FFFFFA"/>
<path d="M58.59 16.7533C58.59 17.8333 57.72 18.7033 56.64 18.7033C55.56 18.7033 54.69 17.8333 54.69 16.7533C54.69 15.6733 55.56 14.8033 56.64 14.8033C57.72 14.8033 58.59 15.6733 58.59 16.7533Z" fill="#FFFFFA"/>
<path d="M72.26 16.7533C72.26 17.8333 71.39 18.7033 70.31 18.7033C69.23 18.7033 68.36 17.8333 68.36 16.7533C68.36 15.6733 69.23 14.8033 70.31 14.8033C71.39 14.8033 72.26 15.6733 72.26 16.7533Z" fill="#FFFFFA"/>
<path d="M85.93 16.7533C85.93 17.8333 85.06 18.7033 83.98 18.7033C82.9 18.7033 82.03 17.8333 82.03 16.7533C82.03 15.6733 82.9 14.8033 83.98 14.8033C85.06 14.8033 85.93 15.6733 85.93 16.7533Z" fill="#FFFFFA"/>
<path d="M99.6 16.7533C99.6 17.8333 98.73 18.7033 97.65 18.7033C96.57 18.7033 95.7 17.8333 95.7 16.7533C95.7 15.6733 96.57 14.8033 97.65 14.8033C98.73 14.8033 99.6 15.6733 99.6 16.7533Z" fill="#FFFFFA"/>
<path d="M113.27 16.7533C113.27 17.8333 112.4 18.7033 111.32 18.7033C110.24 18.7033 109.37 17.8333 109.37 16.7533C109.37 15.6733 110.24 14.8033 111.32 14.8033C112.4 14.8033 113.27 15.6733 113.27 16.7533Z" fill="#FFFFFA"/>
<path d="M126.94 16.7533C126.94 17.8333 126.07 18.7033 124.99 18.7033C123.91 18.7033 123.04 17.8333 123.04 16.7533C123.04 15.6733 123.91 14.8033 124.99 14.8033C126.07 14.8033 126.94 15.6733 126.94 16.7533Z" fill="#FFFFFA"/>
<path d="M140.61 16.7533C140.61 17.8333 139.74 18.7033 138.66 18.7033C137.58 18.7033 136.71 17.8333 136.71 16.7533C136.71 15.6733 137.58 14.8033 138.66 14.8033C139.74 14.8033 140.61 15.6733 140.61 16.7533Z" fill="#FFFFFA"/>
<path d="M154.28 16.7533C154.28 17.8333 153.41 18.7033 152.33 18.7033C151.25 18.7033 150.38 17.8333 150.38 16.7533C150.38 15.6733 151.25 14.8033 152.33 14.8033C153.41 14.8033 154.28 15.6733 154.28 16.7533Z" fill="#FFFFFA"/>
<path d="M167.95 16.7533C167.95 17.8333 167.08 18.7033 166 18.7033C164.92 18.7033 164.05 17.8333 164.05 16.7533C164.05 15.6733 164.92 14.8033 166 14.8033C167.08 14.8033 167.95 15.6733 167.95 16.7533Z" fill="#FFFFFA"/>
<path d="M181.62 16.7533C181.62 17.8333 180.75 18.7033 179.67 18.7033C178.59 18.7033 177.72 17.8333 177.72 16.7533C177.72 15.6733 178.59 14.8033 179.67 14.8033C180.75 14.8033 181.62 15.6733 181.62 16.7533Z" fill="#FFFFFA"/>
<path d="M3.9 28.5933C3.9 29.6733 3.03 30.5433 1.95 30.5433C0.869999 30.5433 0 29.6733 0 28.5933C0 27.5133 0.869999 26.6433 1.95 26.6433C3.03 26.6433 3.9 27.5133 3.9 28.5933Z" fill="#FFFFFA"/>
<path d="M17.57 28.5933C17.57 29.6733 16.7 30.5433 15.62 30.5433C14.54 30.5433 13.67 29.6733 13.67 28.5933C13.67 27.5133 14.54 26.6433 15.62 26.6433C16.7 26.6433 17.57 27.5133 17.57 28.5933Z" fill="#FFFFFA"/>
<path d="M31.24 28.5933C31.24 29.6733 30.37 30.5433 29.29 30.5433C28.21 30.5433 27.34 29.6733 27.34 28.5933C27.34 27.5133 28.21 26.6433 29.29 26.6433C30.37 26.6433 31.24 27.5133 31.24 28.5933Z" fill="#FFFFFA"/>
<path d="M44.91 28.5933C44.91 29.6733 44.04 30.5433 42.96 30.5433C41.88 30.5433 41.01 29.6733 41.01 28.5933C41.01 27.5133 41.88 26.6433 42.96 26.6433C44.04 26.6433 44.91 27.5133 44.91 28.5933Z" fill="#FFFFFA"/>
<path d="M58.59 28.5933C58.59 29.6733 57.72 30.5433 56.64 30.5433C55.56 30.5433 54.69 29.6733 54.69 28.5933C54.69 27.5133 55.56 26.6433 56.64 26.6433C57.72 26.6433 58.59 27.5133 58.59 28.5933Z" fill="#FFFFFA"/>
<path d="M72.26 28.5933C72.26 29.6733 71.39 30.5433 70.31 30.5433C69.23 30.5433 68.36 29.6733 68.36 28.5933C68.36 27.5133 69.23 26.6433 70.31 26.6433C71.39 26.6433 72.26 27.5133 72.26 28.5933Z" fill="#FFFFFA"/>
<path d="M85.93 28.5933C85.93 29.6733 85.06 30.5433 83.98 30.5433C82.9 30.5433 82.03 29.6733 82.03 28.5933C82.03 27.5133 82.9 26.6433 83.98 26.6433C85.06 26.6433 85.93 27.5133 85.93 28.5933Z" fill="#FFFFFA"/>
<path d="M99.6 28.5933C99.6 29.6733 98.73 30.5433 97.65 30.5433C96.57 30.5433 95.7 29.6733 95.7 28.5933C95.7 27.5133 96.57 26.6433 97.65 26.6433C98.73 26.6433 99.6 27.5133 99.6 28.5933Z" fill="#FFFFFA"/>
<path d="M113.27 28.5933C113.27 29.6733 112.4 30.5433 111.32 30.5433C110.24 30.5433 109.37 29.6733 109.37 28.5933C109.37 27.5133 110.24 26.6433 111.32 26.6433C112.4 26.6433 113.27 27.5133 113.27 28.5933Z" fill="#FFFFFA"/>
<path d="M126.94 28.5933C126.94 29.6733 126.07 30.5433 124.99 30.5433C123.91 30.5433 123.04 29.6733 123.04 28.5933C123.04 27.5133 123.91 26.6433 124.99 26.6433C126.07 26.6433 126.94 27.5133 126.94 28.5933Z" fill="#FFFFFA"/>
<path d="M140.61 28.5933C140.61 29.6733 139.74 30.5433 138.66 30.5433C137.58 30.5433 136.71 29.6733 136.71 28.5933C136.71 27.5133 137.58 26.6433 138.66 26.6433C139.74 26.6433 140.61 27.5133 140.61 28.5933Z" fill="#FFFFFA"/>
<path d="M154.28 28.5933C154.28 29.6733 153.41 30.5433 152.33 30.5433C151.25 30.5433 150.38 29.6733 150.38 28.5933C150.38 27.5133 151.25 26.6433 152.33 26.6433C153.41 26.6433 154.28 27.5133 154.28 28.5933Z" fill="#FFFFFA"/>
<path d="M167.95 28.5933C167.95 29.6733 167.08 30.5433 166 30.5433C164.92 30.5433 164.05 29.6733 164.05 28.5933C164.05 27.5133 164.92 26.6433 166 26.6433C167.08 26.6433 167.95 27.5133 167.95 28.5933Z" fill="#FFFFFA"/>
<path d="M181.62 28.5933C181.62 29.6733 180.75 30.5433 179.67 30.5433C178.59 30.5433 177.72 29.6733 177.72 28.5933C177.72 27.5133 178.59 26.6433 179.67 26.6433C180.75 26.6433 181.62 27.5133 181.62 28.5933Z" fill="#FFFFFA"/>
<path d="M3.9 40.4233C3.9 41.5033 3.03 42.3733 1.95 42.3733C0.869999 42.3733 0 41.5033 0 40.4233C0 39.3433 0.869999 38.4733 1.95 38.4733C3.03 38.4733 3.9 39.3433 3.9 40.4233Z" fill="#FFFFFA"/>
<path d="M17.57 40.4233C17.57 41.5033 16.7 42.3733 15.62 42.3733C14.54 42.3733 13.67 41.5033 13.67 40.4233C13.67 39.3433 14.54 38.4733 15.62 38.4733C16.7 38.4733 17.57 39.3433 17.57 40.4233Z" fill="#FFFFFA"/>
<path d="M31.24 40.4233C31.24 41.5033 30.37 42.3733 29.29 42.3733C28.21 42.3733 27.34 41.5033 27.34 40.4233C27.34 39.3433 28.21 38.4733 29.29 38.4733C30.37 38.4733 31.24 39.3433 31.24 40.4233Z" fill="#FFFFFA"/>
<path d="M44.91 40.4233C44.91 41.5033 44.04 42.3733 42.96 42.3733C41.88 42.3733 41.01 41.5033 41.01 40.4233C41.01 39.3433 41.88 38.4733 42.96 38.4733C44.04 38.4733 44.91 39.3433 44.91 40.4233Z" fill="#FFFFFA"/>
<path d="M58.59 40.4233C58.59 41.5033 57.72 42.3733 56.64 42.3733C55.56 42.3733 54.69 41.5033 54.69 40.4233C54.69 39.3433 55.56 38.4733 56.64 38.4733C57.72 38.4733 58.59 39.3433 58.59 40.4233Z" fill="#FFFFFA"/>
<path d="M72.26 40.4233C72.26 41.5033 71.39 42.3733 70.31 42.3733C69.23 42.3733 68.36 41.5033 68.36 40.4233C68.36 39.3433 69.23 38.4733 70.31 38.4733C71.39 38.4733 72.26 39.3433 72.26 40.4233Z" fill="#FFFFFA"/>
<path d="M85.93 40.4233C85.93 41.5033 85.06 42.3733 83.98 42.3733C82.9 42.3733 82.03 41.5033 82.03 40.4233C82.03 39.3433 82.9 38.4733 83.98 38.4733C85.06 38.4733 85.93 39.3433 85.93 40.4233Z" fill="#FFFFFA"/>
<path d="M99.6 40.4233C99.6 41.5033 98.73 42.3733 97.65 42.3733C96.57 42.3733 95.7 41.5033 95.7 40.4233C95.7 39.3433 96.57 38.4733 97.65 38.4733C98.73 38.4733 99.6 39.3433 99.6 40.4233Z" fill="#FFFFFA"/>
<path d="M113.27 40.4233C113.27 41.5033 112.4 42.3733 111.32 42.3733C110.24 42.3733 109.37 41.5033 109.37 40.4233C109.37 39.3433 110.24 38.4733 111.32 38.4733C112.4 38.4733 113.27 39.3433 113.27 40.4233Z" fill="#FFFFFA"/>
<path d="M126.94 40.4233C126.94 41.5033 126.07 42.3733 124.99 42.3733C123.91 42.3733 123.04 41.5033 123.04 40.4233C123.04 39.3433 123.91 38.4733 124.99 38.4733C126.07 38.4733 126.94 39.3433 126.94 40.4233Z" fill="#FFFFFA"/>
<path d="M140.61 40.4233C140.61 41.5033 139.74 42.3733 138.66 42.3733C137.58 42.3733 136.71 41.5033 136.71 40.4233C136.71 39.3433 137.58 38.4733 138.66 38.4733C139.74 38.4733 140.61 39.3433 140.61 40.4233Z" fill="#FFFFFA"/>
<path d="M154.28 40.4233C154.28 41.5033 153.41 42.3733 152.33 42.3733C151.25 42.3733 150.38 41.5033 150.38 40.4233C150.38 39.3433 151.25 38.4733 152.33 38.4733C153.41 38.4733 154.28 39.3433 154.28 40.4233Z" fill="#FFFFFA"/>
<path d="M167.95 40.4233C167.95 41.5033 167.08 42.3733 166 42.3733C164.92 42.3733 164.05 41.5033 164.05 40.4233C164.05 39.3433 164.92 38.4733 166 38.4733C167.08 38.4733 167.95 39.3433 167.95 40.4233Z" fill="#FFFFFA"/>
<path d="M181.62 40.4233C181.62 41.5033 180.75 42.3733 179.67 42.3733C178.59 42.3733 177.72 41.5033 177.72 40.4233C177.72 39.3433 178.59 38.4733 179.67 38.4733C180.75 38.4733 181.62 39.3433 181.62 40.4233Z" fill="#FFFFFA"/>
</g>
</svg>
