<svg width="208" height="211" viewBox="0 0 208 211" fill="none" xmlns="http://www.w3.org/2000/svg">
<g opacity="0.2">
<path d="M69.7701 151.863C62.5461 151.863 56.6774 145.994 56.6774 138.77C56.6774 131.546 62.5461 125.677 69.7701 125.677C76.9941 125.677 82.8627 131.546 82.8627 138.77C82.8627 145.994 76.9941 151.863 69.7701 151.863ZM69.7701 129.362C64.5856 129.362 60.3617 133.586 60.3617 138.77C60.3617 143.954 64.5856 148.178 69.7701 148.178C74.9545 148.178 79.1784 143.954 79.1784 138.77C79.1784 133.586 74.9545 129.362 69.7701 129.362Z" fill="#E6EAFF"/>
<path d="M69.77 169.192C52.9929 169.192 39.3475 155.547 39.3475 138.77C39.3475 121.993 52.9929 108.348 69.77 108.348C86.5471 108.348 100.192 121.993 100.192 138.77C100.192 155.547 86.5471 169.192 69.77 169.192ZM69.77 112.019C55.0193 112.019 43.0188 124.019 43.0188 138.77C43.0188 153.521 55.0193 165.521 69.77 165.521C84.5207 165.521 96.5212 153.521 96.5212 138.77C96.5212 124.019 84.5207 112.019 69.77 112.019Z" fill="#E6EAFF"/>
<path d="M69.77 187.101C43.1109 187.101 21.4257 165.416 21.4257 138.77C21.4257 112.124 43.1109 90.4387 69.77 90.4387C96.4291 90.4387 118.101 112.124 118.101 138.77C118.101 165.416 96.4159 187.101 69.77 187.101ZM69.77 94.1099C45.1505 94.1099 25.11 114.137 25.11 138.77C25.11 163.403 45.1373 183.43 69.77 183.43C94.4027 183.43 114.43 163.403 114.43 138.77C114.43 114.137 94.4027 94.1099 69.77 94.1099Z" fill="#E6EAFF"/>
<path d="M69.7701 206.392C32.4789 206.392 2.14856 176.061 2.14856 138.77C2.14856 101.479 32.4789 71.1486 69.7701 71.1486C107.061 71.1486 137.392 101.479 137.392 138.77C137.392 176.061 107.061 206.392 69.7701 206.392ZM69.7701 74.8329C34.5185 74.8329 5.83292 103.518 5.83292 138.77C5.83292 174.022 34.5185 202.707 69.7701 202.707C105.022 202.707 133.707 174.022 133.707 138.77C133.707 103.518 105.022 74.8329 69.7701 74.8329Z" fill="#E6EAFF"/>
<path d="M69.77 228.09C20.5178 228.09 -19.5499 188.022 -19.5499 138.77C-19.5499 89.5179 20.5178 49.4503 69.77 49.4503C119.022 49.4503 159.09 89.5179 159.09 138.77C159.09 188.022 119.022 228.09 69.77 228.09ZM69.77 53.1347C22.5442 53.1347 -15.8655 91.5575 -15.8655 138.77C-15.8655 185.983 22.5574 224.406 69.77 224.406C116.983 224.406 155.405 185.983 155.405 138.77C155.405 91.5575 116.983 53.1347 69.77 53.1347Z" fill="#E6EAFF"/>
<path d="M69.7701 253.578C6.46454 253.578 -45.0378 202.076 -45.0378 138.77C-45.0378 75.4645 6.46454 23.9622 69.7701 23.9622C133.076 23.9622 184.578 75.4645 184.578 138.77C184.578 202.076 133.076 253.578 69.7701 253.578ZM69.7701 27.6465C8.49095 27.6465 -41.3534 77.5041 -41.3534 138.77C-41.3534 200.036 8.5041 249.893 69.7701 249.893C131.036 249.893 180.893 200.036 180.893 138.77C180.893 77.5041 131.036 27.6465 69.7701 27.6465Z" fill="#E6EAFF"/>
<path d="M69.7701 277C-6.44395 277 -68.46 214.997 -68.46 138.77C-68.46 62.5429 -6.45711 0.540039 69.7701 0.540039C145.997 0.540039 208 62.5429 208 138.77C208 214.997 145.997 277 69.7701 277ZM69.7701 4.22442C-4.41755 4.22442 -64.7756 64.5824 -64.7756 138.77C-64.7756 212.958 -4.41755 273.316 69.7701 273.316C143.958 273.316 204.316 212.958 204.316 138.77C204.316 64.5824 143.958 4.22442 69.7701 4.22442Z" fill="#E6EAFF"/>
</g>
</svg>
