<svg width="150" height="36" viewBox="0 0 150 36" fill="none" xmlns="http://www.w3.org/2000/svg">
<path d="M14.3691 14.4834C14.3691 16.2727 15.8196 17.7231 17.6089 17.7231H24.8355C26.6247 17.7231 28.0752 19.1736 28.0752 20.9629V28.8525C28.0752 30.6418 26.6247 32.0923 24.8355 32.0923H16.9458C15.1565 32.0923 13.7061 30.6418 13.7061 28.8525V21.5156C13.7061 19.7264 12.2556 18.2759 10.4663 18.2759H3.23974C1.45048 18.2759 0 16.8254 0 15.0361V7.14648C0 5.35722 1.45048 3.90674 3.23974 3.90674H11.1294C12.9187 3.90674 14.3691 5.35722 14.3691 7.14648V14.4834Z" fill="#0092B8"/>
<circle cx="22.3199" cy="9.44867" r="5.63715" fill="#0092B8"/>
<path d="M52.7203 28.4653H44.6145L43.2732 32.3433H38.987L46.3056 11.9621H51.0583L58.3769 32.3433H54.0616L52.7203 28.4653ZM51.6123 25.1996L48.6674 16.6856L45.7225 25.1996H51.6123ZM60.0628 24.2083C60.0628 22.5754 60.3835 21.1273 61.025 19.8638C61.6859 18.6003 62.5801 17.6284 63.7075 16.948C64.8349 16.2677 66.0887 15.9275 67.4688 15.9275C68.5185 15.9275 69.5196 16.1608 70.4721 16.6273C71.4246 17.0744 72.1827 17.677 72.7464 18.4351V10.7666H76.8868V32.3433H72.7464V29.9523C72.241 30.7493 71.5315 31.3908 70.6179 31.8767C69.7043 32.3627 68.6449 32.6057 67.4397 32.6057C66.079 32.6057 64.8349 32.2558 63.7075 31.556C62.5801 30.8562 61.6859 29.8746 61.025 28.6111C60.3835 27.3281 60.0628 25.8605 60.0628 24.2083ZM72.7755 24.2666C72.7755 23.2752 72.5812 22.4297 72.1924 21.7299C71.8036 21.0106 71.2788 20.4664 70.6179 20.097C69.957 19.7083 69.2475 19.5139 68.4894 19.5139C67.7313 19.5139 67.0315 19.6986 66.39 20.0679C65.7485 20.4372 65.2237 20.9815 64.8155 21.7007C64.4267 22.4005 64.2323 23.2363 64.2323 24.2083C64.2323 25.1802 64.4267 26.0355 64.8155 26.7741C65.2237 27.4934 65.7485 28.0474 66.39 28.4361C67.0509 28.8249 67.7507 29.0193 68.4894 29.0193C69.2475 29.0193 69.957 28.8346 70.6179 28.4653C71.2788 28.0765 71.8036 27.5322 72.1924 26.8325C72.5812 26.1132 72.7755 25.2579 72.7755 24.2666ZM79.824 24.2083C79.824 22.5754 80.1447 21.1273 80.7862 19.8638C81.4471 18.6003 82.3412 17.6284 83.4687 16.948C84.5961 16.2677 85.8499 15.9275 87.23 15.9275C88.2797 15.9275 89.2808 16.1608 90.2332 16.6273C91.1857 17.0744 91.9438 17.677 92.5075 18.4351V10.7666H96.6479V32.3433H92.5075V29.9523C92.0021 30.7493 91.2926 31.3908 90.379 31.8767C89.4654 32.3627 88.406 32.6057 87.2008 32.6057C85.8401 32.6057 84.5961 32.2558 83.4687 31.556C82.3412 30.8562 81.4471 29.8746 80.7862 28.6111C80.1447 27.3281 79.824 25.8605 79.824 24.2083ZM92.5367 24.2666C92.5367 23.2752 92.3423 22.4297 91.9535 21.7299C91.5648 21.0106 91.0399 20.4664 90.379 20.097C89.7181 19.7083 89.0086 19.5139 88.2505 19.5139C87.4924 19.5139 86.7926 19.6986 86.1512 20.0679C85.5097 20.4372 84.9849 20.9815 84.5767 21.7007C84.1879 22.4005 83.9935 23.2363 83.9935 24.2083C83.9935 25.1802 84.1879 26.0355 84.5767 26.7741C84.9849 27.4934 85.5097 28.0474 86.1512 28.4361C86.8121 28.8249 87.5119 29.0193 88.2505 29.0193C89.0086 29.0193 89.7181 28.8346 90.379 28.4653C91.0399 28.0765 91.5648 27.5322 91.9535 26.8325C92.3423 26.1132 92.5367 25.2579 92.5367 24.2666ZM106.816 32.6057C105.494 32.6057 104.309 32.3724 103.259 31.9059C102.209 31.4199 101.373 30.7687 100.751 29.9523C100.149 29.1359 99.8184 28.232 99.7601 27.2407H103.871C103.949 27.8627 104.25 28.3778 104.775 28.786C105.319 29.1942 105.99 29.3983 106.787 29.3983C107.565 29.3983 108.167 29.2428 108.595 28.9318C109.042 28.6208 109.265 28.2223 109.265 27.7364C109.265 27.2115 108.993 26.8227 108.449 26.57C107.924 26.2979 107.079 26.0063 105.912 25.6953C104.707 25.4037 103.716 25.1024 102.938 24.7914C102.18 24.4804 101.519 24.0042 100.956 23.3627C100.411 22.7212 100.139 21.8562 100.139 20.7677C100.139 19.8735 100.392 19.0571 100.897 18.3184C101.422 17.5798 102.161 16.9966 103.113 16.569C104.085 16.1413 105.222 15.9275 106.525 15.9275C108.449 15.9275 109.985 16.4135 111.132 17.3854C112.278 18.3379 112.91 19.6305 113.027 21.2633H109.12C109.061 20.6219 108.789 20.1165 108.303 19.7471C107.837 19.3584 107.205 19.164 106.408 19.164C105.669 19.164 105.096 19.3001 104.688 19.5722C104.299 19.8443 104.105 20.2234 104.105 20.7094C104.105 21.2536 104.377 21.6716 104.921 21.9631C105.465 22.2353 106.311 22.5171 107.458 22.8087C108.624 23.1003 109.586 23.4016 110.344 23.7126C111.102 24.0236 111.754 24.5096 112.298 25.1705C112.862 25.8119 113.153 26.6672 113.173 27.7364C113.173 28.6694 112.91 29.5052 112.385 30.2439C111.88 30.9826 111.141 31.5657 110.169 31.9934C109.217 32.4016 108.099 32.6057 106.816 32.6057ZM118.331 32.5474C117.593 32.5474 116.98 32.3238 116.494 31.8767C116.028 31.4102 115.794 30.8368 115.794 30.1564C115.794 29.4761 116.028 28.9124 116.494 28.4653C116.98 27.9988 117.593 27.7655 118.331 27.7655C119.05 27.7655 119.643 27.9988 120.11 28.4653C120.576 28.9124 120.81 29.4761 120.81 30.1564C120.81 30.8368 120.576 31.4102 120.11 31.8767C119.643 32.3238 119.05 32.5474 118.331 32.5474ZM123.048 24.2083C123.048 22.5754 123.369 21.1273 124.01 19.8638C124.671 18.6003 125.555 17.6284 126.663 16.948C127.791 16.2677 129.045 15.9275 130.425 15.9275C131.63 15.9275 132.68 16.1705 133.574 16.6564C134.487 17.1424 135.216 17.7547 135.761 18.4934V16.1899H139.872V32.3433H135.761V29.9815C135.236 30.7396 134.507 31.3713 133.574 31.8767C132.66 32.3627 131.601 32.6057 130.396 32.6057C129.035 32.6057 127.791 32.2558 126.663 31.556C125.555 30.8562 124.671 29.8746 124.01 28.6111C123.369 27.3281 123.048 25.8605 123.048 24.2083ZM135.761 24.2666C135.761 23.2752 135.566 22.4297 135.178 21.7299C134.789 21.0106 134.264 20.4664 133.603 20.097C132.942 19.7083 132.233 19.5139 131.474 19.5139C130.716 19.5139 130.017 19.6986 129.375 20.0679C128.734 20.4372 128.209 20.9815 127.801 21.7007C127.412 22.4005 127.217 23.2363 127.217 24.2083C127.217 25.1802 127.412 26.0355 127.801 26.7741C128.209 27.4934 128.734 28.0474 129.375 28.4361C130.036 28.8249 130.736 29.0193 131.474 29.0193C132.233 29.0193 132.942 28.8346 133.603 28.4653C134.264 28.0765 134.789 27.5322 135.178 26.8325C135.566 26.1132 135.761 25.2579 135.761 24.2666ZM145.929 14.2655C145.21 14.2655 144.607 14.042 144.121 13.5949C143.655 13.1284 143.421 12.5549 143.421 11.8746C143.421 11.1942 143.655 10.6305 144.121 10.1834C144.607 9.71691 145.21 9.48365 145.929 9.48365C146.648 9.48365 147.241 9.71691 147.708 10.1834C148.194 10.6305 148.436 11.1942 148.436 11.8746C148.436 12.5549 148.194 13.1284 147.708 13.5949C147.241 14.042 146.648 14.2655 145.929 14.2655ZM147.941 16.1899V32.3433H143.859V16.1899H147.941Z" fill="#0092B8"/>
</svg>
