<svg width="248" height="60" viewBox="0 0 248 60" fill="none" xmlns="http://www.w3.org/2000/svg">
<path d="M24.1886 24.2118C24.1886 27.1573 26.5764 29.5451 29.5219 29.5451H41.4178C44.3633 29.5451 46.7511 31.9329 46.7511 34.8784V47.867C46.7511 50.8126 44.3633 53.2004 41.4178 53.2004H28.4301C25.4846 53.2004 23.0968 50.8126 23.0968 47.867V35.7886C23.0968 32.8431 20.709 30.4553 17.7635 30.4553H5.86666C2.92114 30.4553 0.533325 28.0674 0.533325 25.1219V12.1333C0.533325 9.1878 2.92114 6.79999 5.86666 6.79999H18.8553C21.8008 6.79999 24.1886 9.1878 24.1886 12.1333V24.2118Z" fill="white"/>
<circle cx="37.2769" cy="15.9231" r="9.28" fill="white"/>
<path d="M87.3227 47.5493H73.9787L71.7707 53.9333H64.7147L76.7627 20.3813H84.5867L96.6347 53.9333H89.5307L87.3227 47.5493ZM85.4987 42.1733L80.6507 28.1573L75.8027 42.1733H85.4987ZM99.41 40.5413C99.41 37.8533 99.938 35.4693 100.994 33.3893C102.082 31.3093 103.554 29.7093 105.41 28.5893C107.266 27.4693 109.33 26.9093 111.602 26.9093C113.33 26.9093 114.978 27.2933 116.546 28.0613C118.114 28.7973 119.362 29.7893 120.29 31.0373V18.4133H127.106V53.9333H120.29V49.9973C119.458 51.3093 118.29 52.3653 116.786 53.1653C115.282 53.9653 113.538 54.3653 111.554 54.3653C109.314 54.3653 107.266 53.7893 105.41 52.6373C103.554 51.4853 102.082 49.8693 100.994 47.7893C99.938 45.6773 99.41 43.2613 99.41 40.5413ZM120.338 40.6373C120.338 39.0053 120.018 37.6133 119.378 36.4613C118.738 35.2773 117.874 34.3813 116.786 33.7733C115.698 33.1333 114.53 32.8133 113.282 32.8133C112.034 32.8133 110.882 33.1173 109.826 33.7253C108.77 34.3333 107.906 35.2293 107.234 36.4133C106.594 37.5653 106.274 38.9413 106.274 40.5413C106.274 42.1413 106.594 43.5493 107.234 44.7653C107.906 45.9493 108.77 46.8613 109.826 47.5013C110.914 48.1413 112.066 48.4613 113.282 48.4613C114.53 48.4613 115.698 48.1573 116.786 47.5493C117.874 46.9093 118.738 46.0133 119.378 44.8613C120.018 43.6773 120.338 42.2693 120.338 40.6373ZM131.941 40.5413C131.941 37.8533 132.469 35.4693 133.525 33.3893C134.613 31.3093 136.085 29.7093 137.941 28.5893C139.797 27.4693 141.861 26.9093 144.133 26.9093C145.861 26.9093 147.509 27.2933 149.077 28.0613C150.645 28.7973 151.893 29.7893 152.821 31.0373V18.4133H159.637V53.9333H152.821V49.9973C151.989 51.3093 150.821 52.3653 149.317 53.1653C147.813 53.9653 146.069 54.3653 144.085 54.3653C141.845 54.3653 139.797 53.7893 137.941 52.6373C136.085 51.4853 134.613 49.8693 133.525 47.7893C132.469 45.6773 131.941 43.2613 131.941 40.5413ZM152.869 40.6373C152.869 39.0053 152.549 37.6133 151.909 36.4613C151.269 35.2773 150.405 34.3813 149.317 33.7733C148.229 33.1333 147.061 32.8133 145.813 32.8133C144.565 32.8133 143.413 33.1173 142.357 33.7253C141.301 34.3333 140.437 35.2293 139.765 36.4133C139.125 37.5653 138.805 38.9413 138.805 40.5413C138.805 42.1413 139.125 43.5493 139.765 44.7653C140.437 45.9493 141.301 46.8613 142.357 47.5013C143.445 48.1413 144.597 48.4613 145.813 48.4613C147.061 48.4613 148.229 48.1573 149.317 47.5493C150.405 46.9093 151.269 46.0133 151.909 44.8613C152.549 43.6773 152.869 42.2693 152.869 40.6373ZM176.377 54.3653C174.201 54.3653 172.249 53.9813 170.521 53.2133C168.793 52.4133 167.417 51.3413 166.393 49.9973C165.401 48.6533 164.857 47.1653 164.761 45.5333H171.529C171.657 46.5573 172.153 47.4053 173.017 48.0773C173.913 48.7493 175.017 49.0853 176.329 49.0853C177.609 49.0853 178.601 48.8293 179.305 48.3173C180.041 47.8053 180.409 47.1493 180.409 46.3493C180.409 45.4853 179.961 44.8453 179.065 44.4293C178.201 43.9813 176.809 43.5013 174.889 42.9893C172.905 42.5093 171.273 42.0133 169.993 41.5013C168.745 40.9893 167.657 40.2053 166.729 39.1493C165.833 38.0933 165.385 36.6693 165.385 34.8773C165.385 33.4053 165.801 32.0613 166.633 30.8453C167.497 29.6293 168.713 28.6693 170.281 27.9653C171.881 27.2613 173.753 26.9093 175.897 26.9093C179.065 26.9093 181.593 27.7093 183.481 29.3093C185.369 30.8773 186.409 33.0053 186.601 35.6933H180.169C180.073 34.6373 179.625 33.8053 178.825 33.1973C178.057 32.5573 177.017 32.2373 175.705 32.2373C174.489 32.2373 173.545 32.4613 172.873 32.9093C172.233 33.3573 171.913 33.9813 171.913 34.7813C171.913 35.6773 172.361 36.3653 173.257 36.8453C174.153 37.2933 175.545 37.7573 177.433 38.2373C179.353 38.7173 180.937 39.2133 182.185 39.7253C183.433 40.2373 184.505 41.0373 185.401 42.1253C186.329 43.1813 186.809 44.5893 186.841 46.3493C186.841 47.8853 186.409 49.2613 185.545 50.4773C184.713 51.6933 183.497 52.6533 181.897 53.3573C180.329 54.0293 178.489 54.3653 176.377 54.3653ZM195.333 54.2693C194.117 54.2693 193.109 53.9013 192.309 53.1653C191.541 52.3973 191.157 51.4533 191.157 50.3333C191.157 49.2133 191.541 48.2853 192.309 47.5493C193.109 46.7813 194.117 46.3973 195.333 46.3973C196.517 46.3973 197.493 46.7813 198.261 47.5493C199.029 48.2853 199.413 49.2133 199.413 50.3333C199.413 51.4533 199.029 52.3973 198.261 53.1653C197.493 53.9013 196.517 54.2693 195.333 54.2693ZM203.098 40.5413C203.098 37.8533 203.626 35.4693 204.682 33.3893C205.77 31.3093 207.226 29.7093 209.05 28.5893C210.906 27.4693 212.97 26.9093 215.242 26.9093C217.226 26.9093 218.954 27.3093 220.426 28.1093C221.93 28.9093 223.13 29.9173 224.026 31.1333V27.3413H230.794V53.9333H224.026V50.0453C223.162 51.2933 221.962 52.3333 220.426 53.1653C218.922 53.9653 217.178 54.3653 215.194 54.3653C212.954 54.3653 210.906 53.7893 209.05 52.6373C207.226 51.4853 205.77 49.8693 204.682 47.7893C203.626 45.6773 203.098 43.2613 203.098 40.5413ZM224.026 40.6373C224.026 39.0053 223.706 37.6133 223.066 36.4613C222.426 35.2773 221.562 34.3813 220.474 33.7733C219.386 33.1333 218.218 32.8133 216.97 32.8133C215.722 32.8133 214.57 33.1173 213.514 33.7253C212.458 34.3333 211.594 35.2293 210.922 36.4133C210.282 37.5653 209.962 38.9413 209.962 40.5413C209.962 42.1413 210.282 43.5493 210.922 44.7653C211.594 45.9493 212.458 46.8613 213.514 47.5013C214.602 48.1413 215.754 48.4613 216.97 48.4613C218.218 48.4613 219.386 48.1573 220.474 47.5493C221.562 46.9093 222.426 46.0133 223.066 44.8613C223.706 43.6773 224.026 42.2693 224.026 40.6373ZM240.765 24.1733C239.581 24.1733 238.589 23.8053 237.789 23.0693C237.021 22.3013 236.637 21.3573 236.637 20.2373C236.637 19.1173 237.021 18.1893 237.789 17.4533C238.589 16.6853 239.581 16.3013 240.765 16.3013C241.949 16.3013 242.925 16.6853 243.693 17.4533C244.493 18.1893 244.893 19.1173 244.893 20.2373C244.893 21.3573 244.493 22.3013 243.693 23.0693C242.925 23.8053 241.949 24.1733 240.765 24.1733ZM244.077 27.3413V53.9333H237.357V27.3413H244.077Z" fill="white"/>
</svg>
