<svg width="24" height="24" viewBox="0 0 24 24" fill="none" xmlns="http://www.w3.org/2000/svg">
<path d="M9.62401 21.4626C14.1235 21.4626 17.7711 17.815 17.7711 13.3155C17.7711 8.81603 14.1235 5.16846 9.62401 5.16846C5.1245 5.16846 1.47693 8.81603 1.47693 13.3155C1.47693 17.815 5.1245 21.4626 9.62401 21.4626Z" fill="#00B8DB"/>
<path d="M9.71617 19.6125L9.61283 19.4364C8.03437 16.747 3.83982 11.0397 3.79745 10.9824L3.73694 10.9002L5.166 9.48791L9.68963 12.6466C12.5378 8.95068 15.195 6.41212 16.9283 4.92971C18.8243 3.30809 20.0585 2.56155 20.071 2.5544L20.099 2.5376H22.5231L22.2916 2.74381C16.3364 8.04809 9.88158 19.3218 9.81729 19.4351L9.71617 19.6125Z" fill="white"/>
</svg>
