<svg width="14" height="14" viewBox="0 0 14 14" fill="none" xmlns="http://www.w3.org/2000/svg">
<path d="M11.0833 4.0835C10.9286 4.0835 10.7802 4.14495 10.6709 4.25435C10.5615 4.36375 10.5 4.51212 10.5 4.66683V11.1949C10.4833 11.4899 10.3506 11.7663 10.131 11.964C9.91143 12.1616 9.62261 12.2645 9.3275 12.2502H4.6725C4.37739 12.2645 4.08857 12.1616 3.86896 11.964C3.64935 11.7663 3.51673 11.4899 3.5 11.1949V4.66683C3.5 4.51212 3.43854 4.36375 3.32915 4.25435C3.21975 4.14495 3.07138 4.0835 2.91667 4.0835C2.76196 4.0835 2.61358 4.14495 2.50419 4.25435C2.39479 4.36375 2.33333 4.51212 2.33333 4.66683V11.1949C2.34998 11.7994 2.60551 12.3726 3.04394 12.7891C3.48237 13.2055 4.06798 13.4313 4.6725 13.4168H9.3275C9.93202 13.4313 10.5176 13.2055 10.9561 12.7891C11.3945 12.3726 11.65 11.7994 11.6667 11.1949V4.66683C11.6667 4.51212 11.6052 4.36375 11.4958 4.25435C11.3864 4.14495 11.238 4.0835 11.0833 4.0835ZM11.6667 2.3335H9.33333V1.16683C9.33333 1.01212 9.27187 0.863747 9.16248 0.75435C9.05308 0.644954 8.90471 0.583496 8.75 0.583496H5.25C5.09529 0.583496 4.94692 0.644954 4.83752 0.75435C4.72812 0.863747 4.66667 1.01212 4.66667 1.16683V2.3335H2.33333C2.17862 2.3335 2.03025 2.39495 1.92085 2.50435C1.81146 2.61375 1.75 2.76212 1.75 2.91683C1.75 3.07154 1.81146 3.21991 1.92085 3.32931C2.03025 3.4387 2.17862 3.50016 2.33333 3.50016H11.6667C11.8214 3.50016 11.9697 3.4387 12.0791 3.32931C12.1885 3.21991 12.25 3.07154 12.25 2.91683C12.25 2.76212 12.1885 2.61375 12.0791 2.50435C11.9697 2.39495 11.8214 2.3335 11.6667 2.3335ZM5.83333 2.3335V1.75016H8.16667V2.3335H5.83333Z" fill="#C10007"/>
<path d="M6.41667 9.91667V5.83333C6.41667 5.67862 6.35521 5.53025 6.24581 5.42085C6.13642 5.31146 5.98804 5.25 5.83333 5.25C5.67862 5.25 5.53025 5.31146 5.42085 5.42085C5.31146 5.53025 5.25 5.67862 5.25 5.83333V9.91667C5.25 10.0714 5.31146 10.2197 5.42085 10.3291C5.53025 10.4385 5.67862 10.5 5.83333 10.5C5.98804 10.5 6.13642 10.4385 6.24581 10.3291C6.35521 10.2197 6.41667 10.0714 6.41667 9.91667ZM8.75 9.91667V5.83333C8.75 5.67862 8.68854 5.53025 8.57915 5.42085C8.46975 5.31146 8.32138 5.25 8.16667 5.25C8.01196 5.25 7.86358 5.31146 7.75419 5.42085C7.64479 5.53025 7.58333 5.67862 7.58333 5.83333V9.91667C7.58333 10.0714 7.64479 10.2197 7.75419 10.3291C7.86358 10.4385 8.01196 10.5 8.16667 10.5C8.32138 10.5 8.46975 10.4385 8.57915 10.3291C8.68854 10.2197 8.75 10.0714 8.75 9.91667Z" fill="#C10007"/>
</svg>
