<svg width="14" height="14" viewBox="0 0 14 14" fill="none" xmlns="http://www.w3.org/2000/svg">
<g clip-path="url(#clip0_511_357)">
<path d="M11.0833 7.02705C10.7607 7.02705 10.5 7.28843 10.5 7.61035V12.2771C10.5 12.5985 10.2386 12.8604 9.9167 12.8604H1.75C1.42797 12.8604 1.1667 12.5985 1.1667 12.2771V4.11035C1.1667 3.78895 1.42797 3.52705 1.75 3.52705H6.4167C6.73928 3.52705 7 3.2657 7 2.94376C7 2.62173 6.73928 2.36035 6.4167 2.36035H1.75C0.785176 2.36035 0 3.14553 0 4.11035V12.2771C0 13.2419 0.785176 14.0271 1.75 14.0271H9.9167C10.8815 14.0271 11.6667 13.2419 11.6667 12.2771V7.61035C11.6667 7.2878 11.4058 7.02705 11.0833 7.02705Z" fill="#0092B8"/>
<path d="M5.46929 6.49547C5.42875 6.5362 5.40098 6.58788 5.38939 6.64417L4.97699 8.70693C4.95777 8.80252 4.98809 8.9011 5.05689 8.97052C5.08404 8.99758 5.11625 9.01903 5.1517 9.03364C5.18714 9.04825 5.22511 9.05574 5.26344 9.05567C5.28204 9.05567 5.30137 9.05395 5.32059 9.0499L7.38269 8.6375C7.43984 8.62574 7.49174 8.5984 7.53202 8.55749L12.1474 3.94214L10.0852 1.88015L5.46929 6.49547ZM13.573 0.453927C13.0043 -0.114851 12.0791 -0.114851 11.5109 0.453927L10.7036 1.2612L12.7657 3.3233L13.573 2.51592C13.8483 2.2412 14 1.87482 14 1.48517C14 1.09552 13.8483 0.729169 13.573 0.453927Z" fill="#0092B8"/>
</g>
<defs>
<clipPath id="clip0_511_357">
<rect width="14" height="14" fill="white"/>
</clipPath>
</defs>
</svg>
