<svg width="14" height="14" viewBox="0 0 14 14" fill="none" xmlns="http://www.w3.org/2000/svg">
<path fill-rule="evenodd" clip-rule="evenodd" d="M0.417888 6.74665C0.370795 6.86898 0.370795 7.00444 0.417888 7.12677C1.43352 9.77192 3.99892 11.6513 7.00001 11.6513C10.0011 11.6513 12.5665 9.77192 13.5821 7.12677C13.6292 7.00444 13.6292 6.86898 13.5821 6.74665C12.5665 4.1015 10.0011 2.22168 7.00001 2.22168C3.99892 2.22168 1.43352 4.1015 0.417888 6.74665ZM1.48486 6.93671C2.39528 4.79004 4.52286 3.28229 7.00001 3.28229C9.47716 3.28229 11.6047 4.79004 12.5152 6.93629C11.6047 9.08338 9.47716 10.5907 7.00001 10.5907C4.52286 10.5907 2.39528 9.08295 1.48486 6.93671ZM7.00001 4.4638C5.68571 4.4638 4.61831 5.5312 4.61831 6.8455C4.61831 8.1598 5.68571 9.2272 7.00001 9.2272C8.31431 9.2272 9.3817 8.1598 9.3817 6.8455C9.3817 5.5312 8.31431 4.4638 7.00001 4.4638ZM7.00001 5.52441C7.34459 5.53314 7.67212 5.67616 7.91274 5.92296C8.15337 6.16976 8.28804 6.50081 8.28804 6.8455C8.28804 7.19019 8.15337 7.52124 7.91274 7.76804C7.67212 8.01484 7.34459 8.15786 7.00001 8.16659C6.65543 8.15786 6.3279 8.01484 6.08728 7.76804C5.84665 7.52124 5.71198 7.19019 5.71198 6.8455C5.71198 6.50081 5.84665 6.16976 6.08728 5.92296C6.3279 5.67616 6.65543 5.53314 7.00001 5.52441Z" fill="#005F5A"/>
</svg>
