<svg width="16" height="16" viewBox="0 0 16 16" fill="none" xmlns="http://www.w3.org/2000/svg">
<path d="M14.6666 7.33355H2.94261L6.47127 3.80488C6.53495 3.74339 6.58573 3.66982 6.62067 3.58849C6.65561 3.50715 6.674 3.41967 6.67477 3.33115C6.67554 3.24263 6.65867 3.15485 6.62515 3.07291C6.59163 2.99098 6.54213 2.91655 6.47954 2.85395C6.41694 2.79136 6.34251 2.74186 6.26058 2.70834C6.17864 2.67482 6.09086 2.65795 6.00234 2.65872C5.91382 2.65949 5.82634 2.67788 5.745 2.71282C5.66367 2.74776 5.5901 2.79854 5.52861 2.86222L0.861939 7.52888C0.736958 7.6539 0.666748 7.82344 0.666748 8.00022C0.666748 8.17699 0.736958 8.34653 0.861939 8.47155L5.52861 13.1382C5.65434 13.2597 5.82274 13.3269 5.99754 13.3253C6.17234 13.3238 6.33955 13.2537 6.46315 13.1301C6.58676 13.0065 6.65687 12.8393 6.65839 12.6645C6.65991 12.4897 6.59271 12.3213 6.47127 12.1955L2.94261 8.66688H14.6666C14.8434 8.66688 15.013 8.59664 15.138 8.47162C15.263 8.3466 15.3333 8.17703 15.3333 8.00022C15.3333 7.82341 15.263 7.65384 15.138 7.52881C15.013 7.40379 14.8434 7.33355 14.6666 7.33355Z" fill="#0092B8"/>
</svg>
