<svg width="14" height="14" viewBox="0 0 14 14" fill="none" xmlns="http://www.w3.org/2000/svg">
<g clip-path="url(#clip0_551_663)">
<path d="M9.65805 6.49869L9.00667 6.26492C8.71413 6.15988 8.44845 5.99139 8.2287 5.77156C8.00895 5.55173 7.84057 5.286 7.73563 4.99342L7.50139 4.34203L7.50046 4.34017C7.4244 4.13113 7.22329 3.98975 6.99979 3.98975C6.77628 3.98975 6.57517 4.13113 6.49772 4.3425L6.26395 4.99389C6.1589 5.28643 5.99042 5.5521 5.77059 5.77185C5.55076 5.9916 5.28502 6.15998 4.99244 6.26492L4.33966 6.50009C4.13015 6.57615 3.98877 6.77773 3.98877 7.00076C3.98877 7.2238 4.13015 7.42538 4.34153 7.50283L4.99291 7.7366C5.28545 7.84165 5.55112 8.01013 5.77087 8.22997C5.99062 8.4498 6.15901 8.71553 6.26395 9.00811L6.49912 9.66089C6.57564 9.8704 6.77722 10.0118 7.00025 10.0118C7.22329 10.0118 7.42487 9.8704 7.50232 9.65903L7.73609 9.00764C7.84114 8.7151 8.00962 8.44943 8.22945 8.22968C8.44929 8.00993 8.71502 7.84155 9.0076 7.7366L9.66038 7.50143C9.86989 7.42491 10.0113 7.22334 10.0113 7.0003C10.0113 6.77726 9.86942 6.57615 9.65805 6.49869ZM6.99979 8.36046C6.706 7.77177 6.22879 7.29455 5.64009 7.00076C6.22879 6.70698 6.706 6.22976 6.99979 5.64107C7.29357 6.22976 7.77079 6.70698 8.35948 7.00076C7.77079 7.29455 7.29357 7.77177 6.99979 8.36046Z" fill="#0092B8"/>
<path d="M12.3198 3.79566C12.2556 3.68979 12.152 3.61375 12.0318 3.58426C11.9116 3.55477 11.7845 3.57425 11.6787 3.63841C11.5728 3.70258 11.4967 3.80617 11.4673 3.92641C11.4378 4.04664 11.4573 4.17366 11.5214 4.27953C12.0178 5.10036 12.2797 6.04154 12.2787 7.00079C12.2787 9.91102 9.91069 12.2795 6.99999 12.2795C6.5077 12.2787 6.01796 12.2088 5.54511 12.0719L6.00845 11.8493C6.11537 11.7929 6.19627 11.6973 6.23413 11.5825C6.272 11.4677 6.26389 11.3427 6.21151 11.2337C6.15912 11.1248 6.06654 11.0404 5.95323 10.9983C5.83992 10.9562 5.7147 10.9597 5.6039 11.008L4.14575 11.7093C4.08815 11.7373 4.0369 11.7767 3.99518 11.8253C3.95346 11.8739 3.92215 11.9305 3.90321 11.9917C3.88427 12.0528 3.87809 12.1172 3.88506 12.1808C3.89202 12.2445 3.91199 12.306 3.94371 12.3616L4.75001 13.7652C4.7804 13.8185 4.82101 13.8652 4.86952 13.9027C4.91803 13.9402 4.97347 13.9677 5.03266 13.9837C5.09185 13.9997 5.15363 14.0039 5.21442 13.9959C5.27522 13.988 5.33385 13.9681 5.38693 13.9374C5.44009 13.9069 5.48672 13.8662 5.52416 13.8177C5.56159 13.7692 5.58909 13.7138 5.60508 13.6546C5.62108 13.5955 5.62525 13.5337 5.61736 13.473C5.60947 13.4122 5.58967 13.3536 5.5591 13.3005L5.38179 12.9916C5.90579 13.1334 6.44659 13.2123 7.00046 13.2123C10.4258 13.2123 13.2124 10.4257 13.2124 7.00032C13.213 5.87064 12.9043 4.76235 12.3198 3.79566ZM6.99952 1.72159C7.49833 1.72159 7.985 1.79438 8.4544 1.92923L7.99106 2.1518C7.89623 2.19797 7.81982 2.27488 7.77426 2.37001C7.7287 2.46514 7.71668 2.57288 7.74016 2.67571C7.76363 2.77854 7.82122 2.8704 7.90355 2.93633C7.98588 3.00226 8.0881 3.03838 8.19357 3.03882C8.26356 3.03901 8.33266 3.02321 8.39561 2.99263L9.85376 2.29132C9.91143 2.26338 9.96274 2.22388 10.0045 2.17528C10.0463 2.12668 10.0776 2.07001 10.0965 2.0088C10.1155 1.94759 10.1216 1.88313 10.1146 1.81944C10.1076 1.75574 10.0876 1.69417 10.0558 1.63853L9.2495 0.234979C9.21959 0.180715 9.17916 0.132954 9.13059 0.0944822C9.08201 0.0560103 9.02627 0.0275986 8.96659 0.0109049C8.90692 -0.00578875 8.84452 -0.0104299 8.78303 -0.00274765C8.72155 0.00493459 8.66221 0.0247863 8.60848 0.055649C8.55475 0.0865117 8.5077 0.127767 8.47009 0.177008C8.43247 0.226248 8.40504 0.282488 8.38939 0.342444C8.37375 0.4024 8.3702 0.464872 8.37896 0.526213C8.38772 0.587555 8.40861 0.646538 8.44041 0.69972L8.61772 1.00861C8.09031 0.863739 7.546 0.789522 6.99906 0.787909C3.57369 0.787909 0.787109 3.57449 0.787109 6.99985C0.787109 8.13324 1.09554 9.2419 1.67926 10.205C1.71107 10.2574 1.75288 10.303 1.80232 10.3393C1.85177 10.3756 1.90787 10.4017 1.96742 10.4163C2.02698 10.4309 2.08882 10.4336 2.14942 10.4243C2.21002 10.415 2.26819 10.3938 2.32062 10.362C2.37304 10.3302 2.41868 10.2884 2.45494 10.2389C2.4912 10.1895 2.51737 10.1334 2.53195 10.0738C2.54653 10.0143 2.54924 9.95244 2.53992 9.89184C2.5306 9.83124 2.50943 9.77306 2.47763 9.72064C1.98123 8.89982 1.71931 7.95864 1.72032 6.99939C1.72126 4.08962 4.08929 1.72159 6.99952 1.72159Z" fill="#0092B8"/>
</g>
<defs>
<clipPath id="clip0_551_663">
<rect width="14" height="14" fill="white"/>
</clipPath>
</defs>
</svg>
