<svg width="17" height="16" viewBox="0 0 17 16" fill="none" xmlns="http://www.w3.org/2000/svg">
<path d="M1.83339 7.33355H13.5574L10.0287 3.80488C9.96505 3.74339 9.91427 3.66982 9.87933 3.58849C9.84439 3.50715 9.826 3.41967 9.82523 3.33115C9.82446 3.24263 9.84133 3.15485 9.87485 3.07291C9.90837 2.99098 9.95787 2.91655 10.0205 2.85395C10.0831 2.79136 10.1575 2.74186 10.2394 2.70834C10.3214 2.67482 10.4091 2.65795 10.4977 2.65872C10.5862 2.65949 10.6737 2.67788 10.755 2.71282C10.8363 2.74776 10.9099 2.79854 10.9714 2.86222L15.6381 7.52888C15.763 7.6539 15.8333 7.82344 15.8333 8.00022C15.8333 8.17699 15.763 8.34653 15.6381 8.47155L10.9714 13.1382C10.8457 13.2597 10.6773 13.3269 10.5025 13.3253C10.3277 13.3238 10.1605 13.2537 10.0368 13.1301C9.91324 13.0065 9.84313 12.8393 9.84161 12.6645C9.84009 12.4897 9.90729 12.3213 10.0287 12.1955L13.5574 8.66688H1.83339C1.65658 8.66688 1.48701 8.59664 1.36199 8.47162C1.23696 8.3466 1.16673 8.17703 1.16673 8.00022C1.16673 7.82341 1.23696 7.65384 1.36199 7.52881C1.48701 7.40379 1.65658 7.33355 1.83339 7.33355Z" fill="white"/>
</svg>
